HIERARCHY
ROOT hip
{
  OFFSET 0 0 0
  CHANNELS 6 Xposition Yposition Zposition Zrotation Yrotation Xrotation
  JOINT abdomen
  {
    OFFSET 0 20.6881 -0.73152
    CHANNELS 3 Zrotation Xrotation Yrotation
    JOINT chest
    {
      OFFSET 0 11.7043 -0.48768
      CHANNELS 3 Zrotation Xrotation Yrotation
      JOINT neck
      {
        OFFSET 0 22.1894 -2.19456
        CHANNELS 3 Zrotation Xrotation Yrotation
        JOINT head
        {
          OFFSET -0.24384 7.07133 1.2192
          CHANNELS 3 Zrotation Xrotation Yrotation
          JOINT leftEye
          {
            OFFSET 4.14528 8.04674 8.04672
            CHANNELS 3 Zrotation Xrotation Yrotation
            End Site
            {
              OFFSET 1 0 0
            }
          }
          JOINT rightEye
          {
            OFFSET -3.6576 8.04674 8.04672
            CHANNELS 3 Zrotation Xrotation Yrotation
            End Site
            {
              OFFSET 1 0 0
            }
          }
        }
      }
      JOINT rCollar
      {
        OFFSET -2.68224 19.2634 -4.8768
        CHANNELS 3 Zrotation Xrotation Yrotation
        JOINT rShldr
        {
          OFFSET -8.77824 -1.95073 1.46304
          CHANNELS 3 Zrotation Xrotation Yrotation
          JOINT rForeArm
          {
            OFFSET -28.1742 -1.7115 0.48768
            CHANNELS 3 Zrotation Xrotation Yrotation
            JOINT rHand
            {
              OFFSET -22.5879 0.773209 7.07136
              CHANNELS 3 Zrotation Xrotation Yrotation
              JOINT rThumb1
              {
                OFFSET -1.2192 -0.487915 3.41376
                CHANNELS 3 Zrotation Xrotation Yrotation
                JOINT rThumb2
                {
                  OFFSET -3.37035 -0.52449 3.41376
                  CHANNELS 3 Zrotation Xrotation Yrotation
                  End Site
                  {
                    OFFSET -1.78271 -1.18214 1.43049
                  }
                }
              }
              JOINT rIndex1
              {
                OFFSET -7.75947 0.938293 5.60832
                CHANNELS 3 Zrotation Xrotation Yrotation
                JOINT rIndex2
                {
                  OFFSET -2.54057 -0.884171 1.56538
                  CHANNELS 3 Zrotation Xrotation Yrotation
                  End Site
                  {
                    OFFSET -1.62519 -0.234802 1.16502
                  }
                }
              }
              JOINT rMid1
              {
                OFFSET -8.24714 1.18213 3.41376
                CHANNELS 3 Zrotation Xrotation Yrotation
                JOINT rMid2
                {
                  OFFSET -3.10165 -0.590103 1.0647
                  CHANNELS 3 Zrotation Xrotation Yrotation
                  End Site
                  {
                    OFFSET -2.48547 -0.328903 0.83742
                  }
                }
              }
              JOINT rRing1
              {
                OFFSET -8.82822 0.546677 1.51678
                CHANNELS 3 Zrotation Xrotation Yrotation
                JOINT rRing2
                {
                  OFFSET -2.60934 -0.819778 -0.0198488
                  CHANNELS 3 Zrotation Xrotation Yrotation
                  End Site
                  {
                    OFFSET -2.33842 -0.294052 0.168128
                  }
                }
              }
              JOINT rPinky1
              {
                OFFSET -8.27202 -0.0477905 -0.4584
                CHANNELS 3 Zrotation Xrotation Yrotation
                JOINT rPinky2
                {
                  OFFSET -1.82734 -0.647385 -0.700984
                  CHANNELS 3 Zrotation Xrotation Yrotation
                  End Site
                  {
                    OFFSET -1.69225 -0.51767 -0.607171
                  }
                }
              }
            }
          }
        }
      }
      JOINT lCollar
      {
        OFFSET 2.68224 19.2634 -4.8768
        CHANNELS 3 Zrotation Xrotation Yrotation
        JOINT lShldr
        {
          OFFSET 8.77824 -1.95073 1.46304
          CHANNELS 3 Zrotation Xrotation Yrotation
          JOINT lForeArm
          {
            OFFSET 28.1742 -1.7115 0.48768
            CHANNELS 3 Zrotation Xrotation Yrotation
            JOINT lHand
            {
              OFFSET 22.5879 0.773209 7.07136
              CHANNELS 3 Zrotation Xrotation Yrotation
              JOINT lThumb1
              {
                OFFSET 1.2192 -0.487915 3.41376
                CHANNELS 3 Zrotation Xrotation Yrotation
                JOINT lThumb2
                {
                  OFFSET 3.37035 -0.52449 3.41376
                  CHANNELS 3 Zrotation Xrotation Yrotation
                  End Site
                  {
                    OFFSET 1.78271 -1.18214 1.43049
                  }
                }
              }
              JOINT lIndex1
              {
                OFFSET 7.75947 0.938293 5.60832
                CHANNELS 3 Zrotation Xrotation Yrotation
                JOINT lIndex2
                {
                  OFFSET 2.54057 -0.884171 1.56538
                  CHANNELS 3 Zrotation Xrotation Yrotation
                  End Site
                  {
                    OFFSET 1.62519 -0.234802 1.16502
                  }
                }
              }
              JOINT lMid1
              {
                OFFSET 8.24714 1.18213 3.41376
                CHANNELS 3 Zrotation Xrotation Yrotation
                JOINT lMid2
                {
                  OFFSET 3.10165 -0.590103 1.0647
                  CHANNELS 3 Zrotation Xrotation Yrotation
                  End Site
                  {
                    OFFSET 2.48547 -0.328903 0.83742
                  }
                }
              }
              JOINT lRing1
              {
                OFFSET 8.82822 0.546677 1.51678
                CHANNELS 3 Zrotation Xrotation Yrotation
                JOINT lRing2
                {
                  OFFSET 2.60934 -0.819778 -0.0198488
                  CHANNELS 3 Zrotation Xrotation Yrotation
                  End Site
                  {
                    OFFSET 2.33842 -0.294052 0.168128
                  }
                }
              }
              JOINT lPinky1
              {
                OFFSET 8.27202 -0.0477905 -0.4584
                CHANNELS 3 Zrotation Xrotation Yrotation
                JOINT lPinky2
                {
                  OFFSET 1.82734 -0.647385 -0.700984
                  CHANNELS 3 Zrotation Xrotation Yrotation
                  End Site
                  {
                    OFFSET 1.69225 -0.51767 -0.607171
                  }
                }
              }
            }
          }
        }
      }
    }
  }
  JOINT rButtock
  {
    OFFSET -8.77824 4.35084 1.2192
    CHANNELS 3 Zrotation Xrotation Yrotation
    JOINT rThigh
    {
      OFFSET 0 -1.70687 -2.19456
      CHANNELS 3 Zrotation Xrotation Yrotation
      JOINT rShin
      {
        OFFSET 0 -36.8199 0.73152
        CHANNELS 3 Zrotation Xrotation Yrotation
        JOINT rFoot
        {
          OFFSET 0.73152 -45.1104 -5.12064
          CHANNELS 3 Zrotation Xrotation Yrotation
          End Site
          {
            OFFSET -1.1221 -3.69964 12.103
          }
        }
      }
    }
  }
  JOINT lButtock
  {
    OFFSET 8.77824 4.35084 1.2192
    CHANNELS 3 Zrotation Xrotation Yrotation
    JOINT lThigh
    {
      OFFSET 0 -1.70687 -2.19456
      CHANNELS 3 Zrotation Xrotation Yrotation
      JOINT lShin
      {
        OFFSET 0 -36.8199 0.73152
        CHANNELS 3 Zrotation Xrotation Yrotation
        JOINT lFoot
        {
          OFFSET -0.73152 -45.1104 -5.12064
          CHANNELS 3 Zrotation Xrotation Yrotation
          End Site
          {
            OFFSET 1.1221 -3.69964 12.103
          }
        }
      }
    }
  }
}
MOTION
Frames:	4
Frame Time:	0.00833333
-3.10782 84.2564 35.2638 0.0 0.0 0.0 -1.24151 -0.00398119 -0.0340788 -0.342494 -0.00249266 -0.0593271 -2.74267e-14 -2.38542e-15 -1.49088e-16 -8.25795e-14 -6.36111e-15 -4.33288e-16 -0.0 0.0 0.0 -0.0 0.0 0.0 -1.3768e-14 -6.13437e-17 4.96962e-17 -2.85939e-13 -1.55922e-15 -1.39149e-15 -4.97742e-12 1.44258e-12 -3.18055e-15 -5.69668e-11 -1.74364e-12 -3.91208e-13 -1.34377e-10 -6.52423e-13 -8.07861e-13 -2.32065e-10 -1.1291e-12 -1.3907e-12 -1.34368e-10 -6.46448e-13 -8.20583e-13 7.73091 5.47488 0.417314 -1.34377e-10 -6.51815e-13 -8.11041e-13 2.90554 0.965183 0.102902 -1.34367e-10 -6.51219e-13 -8.07861e-13 10.2786 0.731801 0.0259123 -1.34378e-10 -6.54797e-13 -7.95139e-13 2.22167 -0.733487 -0.20892 -1.36652e-14 -6.13437e-17 -2.48481e-16 -2.9229e-13 -1.06226e-15 -3.37934e-15 -4.97478e-12 -1.53422e-12 1.59028e-14 -5.69753e-11 1.25647e-12 -3.78486e-13 -1.3439e-10 -6.07667e-13 -8.07861e-13 -2.32083e-10 -1.05594e-12 -1.38354e-12 -1.34396e-10 -6.02715e-13 -7.85597e-13 -7.73091 5.47488 -0.417314 -1.34391e-10 -6.07387e-13 -8.07861e-13 -2.90554 0.965183 -0.102902 -1.34401e-10 -6.07188e-13 -8.05475e-13 -10.2786 0.731801 -0.0259123 -1.34392e-10 -6.09871e-13 -8.17403e-13 -2.22167 -0.733487 0.20892 -2.03217e-16 0.0 -3.88251e-19 -0.453841 -1.92099 -0.00952709 -0.0091556 -2.07857 -0.0755521 -0.487451 3.99699 0.136653 2.03217e-16 0.0 3.88251e-19 -1.43728 -5.97115 0.129663 -0.00126418 5.25795 -0.0454133 0.507828 0.710745 -0.0722756
-4.66506 83.775 34.0483 -1.2813 -5.3505 2.661 -0.994207 -0.723312 0.552797 -0.0462521 -0.532418 0.118121 -0.594068 1.00068 -0.610802 1.60761 2.53993 -1.22432 -0.0 0.0 0.0 -0.0 0.0 0.0 1.62133e-14 6.68913e-15 6.71799e-14 22.8857 7.94798 -3.65393 -6.30039 -3.44994 9.11937 0.0786237 6.22673 0.856556 -3.72662e-10 3.77702e-10 -1.52775e-10 -6.4608e-10 6.50026e-10 -2.58562e-10 -3.72652e-10 3.77706e-10 -1.52788e-10 7.73091 5.47488 0.417314 -3.72662e-10 3.777e-10 -1.5278e-10 2.90554 0.965183 0.102902 -3.72652e-10 3.77701e-10 -1.52776e-10 10.2786 0.731801 0.0259123 -3.72664e-10 3.77699e-10 -1.52764e-10 2.22167 -0.733487 -0.20892 1.62844e-14 6.68939e-15 6.69225e-14 -22.9875 9.13513 2.01464 5.32164 -2.68723 -7.99876 -0.00740538 1.90906 -0.267763 -4.66026e-10 -4.06653e-10 -2.46066e-11 -8.05553e-10 -7.01183e-10 -3.97154e-11 -4.66031e-10 -4.0665e-10 -2.4589e-11 -7.73091 5.47488 -0.417314 -4.66026e-10 -4.06653e-10 -2.46067e-11 -2.90554 0.965183 -0.102902 -4.66036e-10 -4.06653e-10 -2.46052e-11 -10.2786 0.731801 -0.0259123 -4.66025e-10 -4.06654e-10 -2.46165e-11 -2.22167 -0.733487 0.20892 -2.03217e-16 0.0 -3.88251e-19 -6.24857 -2.16124 -0.010122 -0.00638279 -1.75272 -0.0549812 -0.241959 3.90877 0.0992607 2.03217e-16 0.0 3.88251e-19 0.854697 -6.80669 -2.03842 -0.0223784 9.57973 -0.183269 0.969093 -5.23136 5.29194
-4.66747 83.7746 34.0501 -1.2918 -5.347 2.6547 -0.716215 -1.48287 1.17379 0.270678 -1.09332 0.305898 -1.2002 2.05712 -1.25807 3.42719 5.22328 -2.52839 -0.0 0.0 0.0 -0.0 0.0 0.0 4.93998e-14 1.48817e-14 1.39572e-13 48.2206 16.239 -7.75668 -11.7808 -6.80524 18.8633 -0.045395 12.8078 1.7968 -6.33429e-10 7.92935e-10 -3.21879e-10 -1.0992e-09 1.36471e-09 -5.44852e-10 -6.33418e-10 7.92936e-10 -3.21894e-10 7.73091 5.47488 0.417314 -6.33428e-10 7.9293e-10 -3.21886e-10 2.90554 0.965183 0.102902 -6.33419e-10 7.92931e-10 -3.21882e-10 10.2786 0.731801 0.0259123 -6.33433e-10 7.92931e-10 -3.21872e-10 2.22167 -0.733487 -0.20892 4.94367e-14 1.48823e-14 1.39357e-13 -48.0232 18.7545 4.32293 10.1398 -5.35351 -16.5106 0.004212 3.92821 -0.551976 -8.26051e-10 -8.47058e-10 -5.67942e-11 -1.42813e-09 -1.46057e-09 -9.23393e-11 -8.26054e-10 -8.47056e-10 -5.67817e-11 -7.73091 5.47488 -0.417314 -8.26051e-10 -8.47058e-10 -5.67944e-11 -2.90554 0.965183 -0.102902 -8.2606e-10 -8.47058e-10 -5.67939e-11 -10.2786 0.731801 -0.0259123 -8.26047e-10 -8.47058e-10 -5.68047e-11 -2.22167 -0.733487 0.20892 -2.03217e-16 0.0 -3.88251e-19 -12.3744 -2.41524 -0.0107513 -0.00370602 -1.40823 -0.0332447 0.0174463 3.8155 0.0597392 2.03217e-16 0.0 3.88251e-19 3.20863 -7.6773 -4.33935 -0.021493 14.1486 -0.334098 2.68052 -11.347 11.1375
-4.66638 83.7744 34.0516 -1.2931 -5.3257 2.6514 -0.455374 -2.16109 1.72765 0.556081 -1.59222 0.473184 -1.71814 3.00068 -1.83464 5.15069 7.6058 -3.70196 -0.0 0.0 0.0 -0.0 0.0 0.0 7.61758e-14 2.01901e-14 2.0144e-13 71.9087 23.4384 -11.8462 -15.7099 -9.30274 27.7031 -0.348814 18.663 2.69639 -8.4923e-10 1.13441e-09 -4.56709e-10 -1.47411e-09 1.95234e-09 -7.72906e-10 -8.49219e-10 1.13441e-09 -4.56724e-10 7.73091 5.47488 0.417314 -8.49229e-10 1.1344e-09 -4.56717e-10 2.90554 0.965183 0.102902 -8.49222e-10 1.13441e-09 -4.56712e-10 10.2786 0.731801 0.0259123 -8.49236e-10 1.13441e-09 -4.56703e-10 2.22167 -0.733487 -0.20892 7.61837e-14 2.01908e-14 2.01264e-13 -71.09 27.2611 6.71607 13.7714 -7.43455 -24.1859 0.031541 5.72669 -0.806872 -1.1293e-09 -1.21874e-09 -7.2204e-11 -1.95249e-09 -2.10144e-09 -1.16379e-10 -1.1293e-09 -1.21874e-09 -7.21957e-11 -7.73091 5.47488 -0.417314 -1.1293e-09 -1.21874e-09 -7.22043e-11 -2.90554 0.965183 -0.102902 -1.12931e-09 -1.21875e-09 -7.22046e-11 -10.2786 0.731801 -0.0259123 -1.12929e-09 -1.21874e-09 -7.22147e-11 -2.22167 -0.733487 0.20892 -2.03217e-16 0.0 -3.88251e-19 -17.838 -2.64176 -0.0113131 -0.00153917 -1.10103 -0.0138644 0.248679 3.73234 0.024501 2.03217e-16 0.0 3.88251e-19 5.24776 -8.43841 -6.39963 0.000930098 18.2229 -0.475545 5.29985 -16.5012 16.6589
